<svg width="30" height="23" viewBox="0 0 30 23" fill="none" xmlns="http://www.w3.org/2000/svg">
<path d="M27.1875 22.5H2.8125C1.25918 22.5 0 21.2408 0 19.6875V2.8125C0 1.25918 1.25918 0 2.8125 0H27.1875C28.7408 0 30 1.25918 30 2.8125V19.6875C30 21.2408 28.7408 22.5 27.1875 22.5ZM6.5625 3.28125C4.75031 3.28125 3.28125 4.75031 3.28125 6.5625C3.28125 8.37469 4.75031 9.84375 6.5625 9.84375C8.37469 9.84375 9.84375 8.37469 9.84375 6.5625C9.84375 4.75031 8.37469 3.28125 6.5625 3.28125ZM3.75 18.75H26.25V12.1875L21.1222 7.05967C20.8476 6.7851 20.4024 6.7851 20.1278 7.05967L12.1875 15L8.93467 11.7472C8.6601 11.4726 8.2149 11.4726 7.94027 11.7472L3.75 15.9375V18.75Z" fill="white"/>
</svg>
