<svg width="23" height="30" viewBox="0 0 23 30" fill="none" xmlns="http://www.w3.org/2000/svg">
<path d="M13.125 7.96875V0H1.40625C0.626953 0 0 0.626953 0 1.40625V28.5938C0 29.373 0.626953 30 1.40625 30H21.0938C21.873 30 22.5 29.373 22.5 28.5938V9.375H14.5312C13.7578 9.375 13.125 8.74219 13.125 7.96875ZM16.875 21.7969C16.875 22.1836 16.5586 22.5 16.1719 22.5H6.32812C5.94141 22.5 5.625 22.1836 5.625 21.7969V21.3281C5.625 20.9414 5.94141 20.625 6.32812 20.625H16.1719C16.5586 20.625 16.875 20.9414 16.875 21.3281V21.7969ZM16.875 18.0469C16.875 18.4336 16.5586 18.75 16.1719 18.75H6.32812C5.94141 18.75 5.625 18.4336 5.625 18.0469V17.5781C5.625 17.1914 5.94141 16.875 6.32812 16.875H16.1719C16.5586 16.875 16.875 17.1914 16.875 17.5781V18.0469ZM16.875 13.8281V14.2969C16.875 14.6836 16.5586 15 16.1719 15H6.32812C5.94141 15 5.625 14.6836 5.625 14.2969V13.8281C5.625 13.4414 5.94141 13.125 6.32812 13.125H16.1719C16.5586 13.125 16.875 13.4414 16.875 13.8281ZM22.5 7.14258V7.5H15V0H15.3574C15.7324 0 16.0898 0.146484 16.3535 0.410156L22.0898 6.15234C22.3535 6.41602 22.5 6.77344 22.5 7.14258Z" fill="white"/>
</svg>
