<svg width="34" height="30" viewBox="0 0 34 30" fill="none" xmlns="http://www.w3.org/2000/svg">
<path d="M33.913 7.5V26.7857C33.913 28.5603 32.489 30 30.7337 30H3.17935C1.42408 30 0 28.5603 0 26.7857V7.5C0 5.72545 1.42408 4.28571 3.17935 4.28571H9.00815L9.82286 2.08259C10.2865 0.830357 11.4721 0 12.7969 0H21.1095C22.4343 0 23.6199 0.830357 24.0836 2.08259L24.9049 4.28571H30.7337C32.489 4.28571 33.913 5.72545 33.913 7.5ZM24.9049 17.1429C24.9049 12.7098 21.3414 9.10714 16.9565 9.10714C12.5717 9.10714 9.00815 12.7098 9.00815 17.1429C9.00815 21.5759 12.5717 25.1786 16.9565 25.1786C21.3414 25.1786 24.9049 21.5759 24.9049 17.1429ZM22.7853 17.1429C22.7853 20.3906 20.169 23.0357 16.9565 23.0357C13.7441 23.0357 11.1277 20.3906 11.1277 17.1429C11.1277 13.8951 13.7441 11.25 16.9565 11.25C20.169 11.25 22.7853 13.8951 22.7853 17.1429Z" fill="white"/>
</svg>
