<svg width="21" height="29" viewBox="0 0 21 29" fill="none" xmlns="http://www.w3.org/2000/svg">
<path d="M10.3125 19.4165C13.4191 19.4165 15.9375 17.0457 15.9375 14.1211V5.29541C15.9375 2.3708 13.4191 0 10.3125 0C7.20586 0 4.6875 2.3708 4.6875 5.29541V14.1211C4.6875 17.0457 7.20586 19.4165 10.3125 19.4165ZM19.6875 10.5908H18.75C18.232 10.5908 17.8125 10.9858 17.8125 11.4734V14.1211C17.8125 18.2471 14.0338 21.5578 9.56309 21.1474C5.6666 20.7894 2.8125 17.492 2.8125 13.8067V11.4734C2.8125 10.9858 2.39297 10.5908 1.875 10.5908H0.9375C0.419531 10.5908 0 10.9858 0 11.4734V13.6886C0 18.6332 3.74824 23.0411 8.90625 23.7108V25.5945H5.625C5.10703 25.5945 4.6875 25.9894 4.6875 26.4771V27.3596C4.6875 27.8472 5.10703 28.2422 5.625 28.2422H15C15.518 28.2422 15.9375 27.8472 15.9375 27.3596V26.4771C15.9375 25.9894 15.518 25.5945 15 25.5945H11.7188V23.7317C16.7408 23.083 20.625 19.0249 20.625 14.1211V11.4734C20.625 10.9858 20.2055 10.5908 19.6875 10.5908Z" fill="white"/>
</svg>
