<svg width="26" height="18" viewBox="0 0 26 18" fill="none" xmlns="http://www.w3.org/2000/svg">
<path d="M7.71429 9C10.2013 9 12.2143 6.98705 12.2143 4.5C12.2143 2.01295 10.2013 0 7.71429 0C5.22723 0 3.21429 2.01295 3.21429 4.5C3.21429 6.98705 5.22723 9 7.71429 9ZM10.8 10.2857H10.4665C9.6308 10.6875 8.70268 10.9286 7.71429 10.9286C6.72589 10.9286 5.80179 10.6875 4.96205 10.2857H4.62857C2.07321 10.2857 0 12.3589 0 14.9143V16.0714C0 17.1362 0.863839 18 1.92857 18H13.5C14.5647 18 15.4286 17.1362 15.4286 16.0714V14.9143C15.4286 12.3589 13.3554 10.2857 10.8 10.2857ZM19.2857 9C21.4152 9 23.1429 7.27232 23.1429 5.14286C23.1429 3.01339 21.4152 1.28571 19.2857 1.28571C17.1562 1.28571 15.4286 3.01339 15.4286 5.14286C15.4286 7.27232 17.1562 9 19.2857 9ZM21.2143 10.2857H21.0616C20.5031 10.4786 19.9125 10.6071 19.2857 10.6071C18.6589 10.6071 18.0683 10.4786 17.5098 10.2857H17.3571C16.5375 10.2857 15.7821 10.5228 15.1192 10.9045C16.0996 11.9612 16.7143 13.3634 16.7143 14.9143V16.4571C16.7143 16.5455 16.6942 16.6299 16.6902 16.7143H23.7857C24.8504 16.7143 25.7143 15.8504 25.7143 14.7857C25.7143 12.2987 23.7013 10.2857 21.2143 10.2857Z" fill="black"/>
</svg>
