<svg width="16" height="3" viewBox="0 0 16 3" fill="none" xmlns="http://www.w3.org/2000/svg">
<path d="M14.5728 3C13.922 3 13.3956 2.47352 13.3956 1.82278C13.3956 1.17205 13.922 0.645569 14.5728 0.645569C15.2235 0.645569 15.75 1.17205 15.75 1.82278C15.75 2.47352 15.2235 3 14.5728 3Z" fill="black" fill-opacity="0.25"/>
<path d="M8.00003 3C7.34929 3 6.82282 2.47352 6.82282 1.82278C6.82282 1.17205 7.34929 0.645569 8.00003 0.645569C8.65077 0.645569 9.17725 1.17205 9.17725 1.82278C9.17725 2.47352 8.65077 3 8.00003 3Z" fill="black" fill-opacity="0.25"/>
<path d="M1.42728 3C0.776538 3 0.250061 2.47352 0.250061 1.82278C0.250061 1.17205 0.776538 0.645569 1.42728 0.645569C2.07802 0.645569 2.60449 1.17205 2.60449 1.82278C2.60449 2.47352 2.07802 3 1.42728 3Z" fill="black" fill-opacity="0.25"/>
</svg>
