<svg width="4" height="24" viewBox="0 0 4 24" fill="none" xmlns="http://www.w3.org/2000/svg">
<path d="M3.64551 1.82278C3.64551 2.83038 2.83032 3.64557 1.82272 3.64557C0.815128 3.64557 -6.19888e-05 2.83038 -6.19888e-05 1.82278C-6.19888e-05 0.81519 0.815128 0 1.82272 0C2.83032 0 3.64551 0.81519 3.64551 1.82278Z" fill="black"/>
<path d="M3.64551 12C3.64551 13.0076 2.83032 13.8228 1.82272 13.8228C0.815128 13.8228 -6.19888e-05 13.0076 -6.19888e-05 12C-6.19888e-05 10.9924 0.815128 10.1772 1.82272 10.1772C2.83032 10.1772 3.64551 10.9924 3.64551 12Z" fill="black"/>
<path d="M3.64551 22.1773C3.64551 23.1849 2.83032 24.0001 1.82272 24.0001C0.815128 24.0001 -6.19888e-05 23.1849 -6.19888e-05 22.1773C-6.19888e-05 21.1697 0.815128 20.3545 1.82272 20.3545C2.83032 20.3545 3.64551 21.1697 3.64551 22.1773Z" fill="black"/>
</svg>
