<svg width="25" height="22" viewBox="0 0 25 22" fill="none" xmlns="http://www.w3.org/2000/svg">
<path d="M15.5085 0.853557L15.5086 0.853584L24.1025 8.31707C24.1025 8.31709 24.1025 8.31711 24.1025 8.31712C24.2992 8.48805 24.2991 8.79779 24.1025 8.96861L15.5085 16.4329L15.9882 16.9851L15.5085 16.4329C15.2405 16.6657 14.8125 16.4776 14.8125 16.1071V11.7899V11.0289L14.0517 11.0399C12.1348 11.0677 10.4521 11.2081 9.04294 11.5285C7.63641 11.8484 6.44704 12.36 5.5716 13.1709C3.74964 14.8588 3.59644 17.508 4.72376 21.1338L5.43994 20.9111L4.72376 21.1338C4.73334 21.1646 4.72846 21.174 4.72772 21.1754C4.72768 21.1755 4.72766 21.1755 4.72764 21.1756C4.72471 21.1828 4.71352 21.2022 4.68443 21.2213C4.65532 21.2405 4.62235 21.2498 4.59418 21.25C4.57105 21.2501 4.54464 21.2447 4.51181 21.2207L4.5118 21.2207C2.52378 19.7665 0.75 16.9845 0.75 14.2571C0.75 12.4936 1.11603 11.1304 1.74095 10.0669C2.36474 9.00527 3.27472 8.19405 4.44071 7.57734C6.80637 6.32609 10.1651 5.9054 14.0711 5.86042L14.8125 5.85188V5.11047V1.1793C14.8125 0.8086 15.2409 0.621115 15.5085 0.853557Z" stroke="black" stroke-width="1.5"/>
</svg>
