<svg width="15" height="15" viewBox="0 0 15 15" fill="none" xmlns="http://www.w3.org/2000/svg">
<path d="M14.5312 7.26562C14.5312 11.2783 11.2783 14.5312 7.26562 14.5312C3.25292 14.5312 0 11.2783 0 7.26562C0 3.25292 3.25292 0 7.26562 0C11.2783 0 14.5312 3.25292 14.5312 7.26562ZM6.42521 11.1127L11.8158 5.72209C11.9989 5.53904 11.9989 5.24224 11.8158 5.05919L11.1529 4.39629C10.9699 4.21321 10.6731 4.21321 10.49 4.39629L6.09375 8.79252L4.04124 6.74001C3.85819 6.55696 3.56139 6.55696 3.37831 6.74001L2.71541 7.40291C2.53236 7.58596 2.53236 7.88276 2.71541 8.06581L5.76229 11.1127C5.94536 11.2958 6.24214 11.2958 6.42521 11.1127Z" fill="#32D942"/>
</svg>
