<svg width="29" height="27" viewBox="0 0 29 27" fill="none" xmlns="http://www.w3.org/2000/svg">
<path d="M25.3125 3.75V22.5H27.1875C27.4361 22.5 27.6746 22.5988 27.8504 22.7746C28.0262 22.9504 28.125 23.1889 28.125 23.4375V25.3125C28.125 25.5611 28.0262 25.7996 27.8504 25.9754C27.6746 26.1512 27.4361 26.25 27.1875 26.25H17.8125C17.5639 26.25 17.3254 26.1512 17.1496 25.9754C16.9738 25.7996 16.875 25.5611 16.875 25.3125V23.4375C16.875 23.1889 16.9738 22.9504 17.1496 22.7746C17.3254 22.5988 17.5639 22.5 17.8125 22.5H19.6875V15H8.4375V22.5H10.3125C10.5611 22.5 10.7996 22.5988 10.9754 22.7746C11.1512 22.9504 11.25 23.1889 11.25 23.4375V25.3125C11.25 25.5611 11.1512 25.7996 10.9754 25.9754C10.7996 26.1512 10.5611 26.25 10.3125 26.25H0.9375C0.68886 26.25 0.450403 26.1512 0.274587 25.9754C0.098772 25.7996 0 25.5611 0 25.3125V23.4375C0 23.1889 0.098772 22.9504 0.274587 22.7746C0.450403 22.5988 0.68886 22.5 0.9375 22.5H2.8125V3.75H0.9375C0.68886 3.75 0.450403 3.65123 0.274587 3.47541C0.098772 3.2996 0 3.06114 0 2.8125V0.9375C0 0.68886 0.098772 0.450403 0.274587 0.274587C0.450403 0.098772 0.68886 0 0.9375 0H10.3125C10.5611 0 10.7996 0.098772 10.9754 0.274587C11.1512 0.450403 11.25 0.68886 11.25 0.9375V2.8125C11.25 3.06114 11.1512 3.2996 10.9754 3.47541C10.7996 3.65123 10.5611 3.75 10.3125 3.75H8.4375V11.25H19.6875V3.75H17.8125C17.5639 3.75 17.3254 3.65123 17.1496 3.47541C16.9738 3.2996 16.875 3.06114 16.875 2.8125V0.9375C16.875 0.68886 16.9738 0.450403 17.1496 0.274587C17.3254 0.098772 17.5639 0 17.8125 0H27.1875C27.4361 0 27.6746 0.098772 27.8504 0.274587C28.0262 0.450403 28.125 0.68886 28.125 0.9375V2.8125C28.125 3.06114 28.0262 3.2996 27.8504 3.47541C27.6746 3.65123 27.4361 3.75 27.1875 3.75H25.3125Z" fill="white"/>
</svg>
