<svg width="23" height="18" viewBox="0 0 23 18" fill="none" xmlns="http://www.w3.org/2000/svg">
<path d="M11.1951 4.58985L3.83364 10.5873V17.0604C3.83364 17.228 3.90094 17.3887 4.02075 17.5072C4.14055 17.6257 4.30304 17.6923 4.47248 17.6923L8.94675 17.6809C9.11563 17.68 9.2773 17.6131 9.39641 17.4946C9.51553 17.3762 9.5824 17.216 9.58239 17.0489V13.2687C9.58239 13.1011 9.6497 12.9404 9.76951 12.8219C9.88931 12.7034 10.0518 12.6368 10.2212 12.6368H12.7766C12.946 12.6368 13.1085 12.7034 13.2283 12.8219C13.3481 12.9404 13.4154 13.1011 13.4154 13.2687V17.0462C13.4152 17.1293 13.4315 17.2117 13.4635 17.2886C13.4955 17.3655 13.5425 17.4354 13.6018 17.4943C13.6612 17.5532 13.7317 17.5999 13.8093 17.6318C13.887 17.6637 13.9702 17.6801 14.0543 17.6801L18.5269 17.6923C18.6964 17.6923 18.8589 17.6257 18.9787 17.5072C19.0985 17.3887 19.1658 17.228 19.1658 17.0604V10.583L11.806 4.58985C11.7194 4.52086 11.6116 4.48324 11.5005 4.48324C11.3894 4.48324 11.2816 4.52086 11.1951 4.58985ZM22.8231 8.66625L19.4852 5.94457V0.473954C19.4852 0.348254 19.4347 0.227702 19.3449 0.138818C19.255 0.0499344 19.1332 0 19.0061 0H16.7701C16.6431 0 16.5212 0.0499344 16.4313 0.138818C16.3415 0.227702 16.291 0.348254 16.291 0.473954V3.34177L12.7163 0.432483C12.3733 0.153237 11.9428 0.000558217 11.4985 0.000558217C11.0542 0.000558217 10.6238 0.153237 10.2807 0.432483L0.173884 8.66625C0.125367 8.70592 0.0852268 8.75465 0.0557571 8.80967C0.0262874 8.86469 0.00806565 8.92491 0.00213299 8.9869C-0.00379968 9.04889 0.00267301 9.11142 0.0211812 9.17093C0.0396894 9.23044 0.0698704 9.28576 0.11 9.33373L1.12815 10.5581C1.16817 10.6063 1.2174 10.6461 1.27301 10.6754C1.32862 10.7047 1.38952 10.7229 1.45224 10.7288C1.51495 10.7348 1.57824 10.7285 1.63849 10.7103C1.69873 10.692 1.75475 10.6622 1.80332 10.6225L11.1951 2.97051C11.2816 2.90152 11.3894 2.8639 11.5005 2.8639C11.6116 2.8639 11.7194 2.90152 11.806 2.97051L21.1981 10.6225C21.2466 10.6622 21.3025 10.692 21.3627 10.7104C21.4228 10.7287 21.4861 10.7351 21.5487 10.7292C21.6114 10.7233 21.6723 10.7053 21.7279 10.6762C21.7835 10.647 21.8328 10.6073 21.8729 10.5593L22.891 9.33492C22.9311 9.28667 22.9612 9.23107 22.9795 9.1713C22.9977 9.11152 23.0039 9.04876 22.9976 8.98663C22.9913 8.92449 22.9726 8.8642 22.9427 8.80922C22.9128 8.75423 22.8721 8.70565 22.8231 8.66625Z" fill="black"/>
</svg>
