<svg width="15" height="15" viewBox="0 0 15 15" fill="none" xmlns="http://www.w3.org/2000/svg">
<path d="M14.5312 7.26562C14.5312 11.2783 11.2783 14.5312 7.26562 14.5312C3.25292 14.5312 0 11.2783 0 7.26562C0 3.25292 3.25292 0 7.26562 0C11.2783 0 14.5312 3.25292 14.5312 7.26562Z" fill="#979797"/>
<path d="M4.46265 5.91523L3.84553 6.57208C4.45305 4.45323 6.55931 3.2598 8.54997 3.90643C9.30862 4.15286 9.97488 4.6478 10.4539 5.32076L11 4.8803C9.51664 2.79302 6.72441 2.38083 4.76337 3.95968C3.95055 4.61407 3.37328 5.54548 3.12796 6.59835L2.48478 5.91523L2 6.43086L3.47423 8L4.94846 6.43086L4.46265 5.91523Z" fill="white"/>
<path d="M11.5365 7L10.0729 8.56683L10.5542 9.08206L11.174 8.41889C10.5762 10.538 8.48696 11.7371 6.50756 11.097C5.72026 10.8425 5.03317 10.3175 4.5524 9.60312L4 10.0287C4.68269 11.0505 5.71851 11.7378 6.87702 11.9377C7.11446 11.979 7.35462 11.9998 7.59517 12C9.62704 11.999 11.3958 10.5132 11.8802 8.40067L12.5174 9.08206L13 8.56683L11.5365 7ZM11.5195 8.04977L11.5368 8.03119L11.562 8.05852L11.5195 8.04977Z" fill="white"/>
</svg>
