<svg width="25" height="22" viewBox="0 0 25 22" fill="none" xmlns="http://www.w3.org/2000/svg">
<path d="M3.51139 16.8122L3.61218 16.4034L3.31578 16.1045C1.69622 14.4711 0.75 12.4248 0.75 10.2143C0.75 5.1206 5.86118 0.75 12.5 0.75C19.1388 0.75 24.25 5.1206 24.25 10.2143C24.25 15.308 19.1388 19.6786 12.5 19.6786C10.7182 19.6786 9.03556 19.3473 7.52123 18.7744L7.12089 18.623L6.78687 18.8906C5.75242 19.7195 3.78855 20.9906 1.19102 21.2154C1.3825 20.9736 1.60869 20.6728 1.84501 20.3266C2.45737 19.4296 3.17552 18.1741 3.51139 16.8122ZM0.650802 21.8539C0.653182 21.8513 0.65584 21.8485 0.65877 21.8454C0.656194 21.8482 0.653562 21.8511 0.650874 21.8539L0.650802 21.8539Z" stroke="black" stroke-width="1.5"/>
</svg>
