<svg width="17" height="18" viewBox="0 0 17 18" fill="none" xmlns="http://www.w3.org/2000/svg">
<path d="M8.37501 18C9.61673 18 10.624 16.9928 10.624 15.75H6.12607C6.12607 16.9928 7.1333 18 8.37501 18ZM15.9473 12.7368C15.2681 12.0069 13.9972 10.909 13.9972 7.3125C13.9972 4.58086 12.0819 2.39414 9.49931 1.85766V1.125C9.49931 0.503789 8.99587 0 8.37501 0C7.75416 0 7.25072 0.503789 7.25072 1.125V1.85766C4.66814 2.39414 2.75283 4.58086 2.75283 7.3125C2.75283 10.909 1.48194 12.0069 0.802719 12.7368C0.591782 12.9635 0.498266 13.2346 0.500024 13.5C0.503891 14.0766 0.956352 14.625 1.62854 14.625H15.1215C15.7937 14.625 16.2465 14.0766 16.25 13.5C16.2518 13.2346 16.1582 12.9632 15.9473 12.7368Z" fill="black"/>
</svg>
